<svg width="24" height="25" viewBox="0 0 24 25" fill="none" xmlns="http://www.w3.org/2000/svg">
<path fill-rule="evenodd" clip-rule="evenodd" d="M4.25203 10.9394H5C6.65685 10.9394 8 12.2825 8 13.9394V14.9394C8 15.4917 8.44772 15.9394 9 15.9394C10.6569 15.9394 12 17.2825 12 18.9394V20.9394C12.6906 20.9394 13.3608 20.8519 14 20.6874V18.9394C14 17.2825 15.3431 15.9394 17 15.9394H19.4185C19.7935 15.013 20 14.0003 20 12.9394C20 11.8785 19.7935 10.8658 19.4185 9.93939L19 9.93939C18.4477 9.93939 18 10.3871 18 10.9394C18 12.5962 16.6569 13.9394 15 13.9394C13.3431 13.9394 12 12.5962 12 10.9394C12 10.3871 11.5523 9.93939 11 9.93939H10.5C8.65029 9.93939 7.13571 8.50451 7.00863 6.68711C5.67527 7.75296 4.69034 9.23646 4.25203 10.9394ZM7.55564 3.97881C4.26289 5.61513 2 9.013 2 12.9394C2 18.4622 6.47715 22.9394 12 22.9394C17.5228 22.9394 22 18.4622 22 12.9394C22 11.3433 21.6261 9.83448 20.961 8.49586C20.9607 8.49525 20.9604 8.49464 20.9601 8.49403C19.3236 5.20182 15.926 2.93939 12 2.93939C10.4035 2.93939 8.89447 3.31349 7.55564 3.97881ZM9 5.52091V6.43939C9 7.26782 9.67157 7.93939 10.5 7.93939H11C12.6569 7.93939 14 9.28254 14 10.9394C14 11.4917 14.4477 11.9394 15 11.9394C15.5523 11.9394 16 11.4917 16 10.9394C16 9.52046 16.9851 8.3316 18.3087 8.01943C16.8446 6.1447 14.563 4.93939 12 4.93939C10.9391 4.93939 9.92643 5.1459 9 5.52091ZM18.2454 17.9394H17C16.4477 17.9394 16 18.3871 16 18.9394V19.8691C16.8634 19.3697 17.6249 18.7134 18.2454 17.9394ZM10 20.6874C6.54955 19.7993 4 16.6671 4 12.9394H5C5.55228 12.9394 6 13.3871 6 13.9394V14.9394C6 16.5962 7.34315 17.9394 9 17.9394C9.55228 17.9394 10 18.3871 10 18.9394V20.6874Z" fill="#FFACFF"/>
</svg>
