<svg width="302" height="74" viewBox="0 0 302 74" fill="none" xmlns="http://www.w3.org/2000/svg">
<path fill-rule="evenodd" clip-rule="evenodd" d="M-178 17.2279C-164.249 23.309 -120.897 35.6891 -57.4997 36.5604C-7.08258 37.2533 38.5192 46.2672 78.8611 54.2414C101.929 58.8012 123.277 63.021 142.823 65.1507C177.414 68.9199 231.176 64.675 272.304 61.4276C295.053 59.6313 313.937 58.1402 323.573 58.4796C345.217 59.242 388.876 69.1442 408 74V58.5922C407.947 58.5928 406.897 58.3659 390.908 53.6187C368.379 46.9295 304.094 40.5887 274.522 38.639C335.727 36.5846 389.009 48.9108 408 55.3307V-0.470833H-178V0.616707C-168.301 6.5135 -119.848 21.1604 -76.8743 20.5897C-66.7065 20.4547 -58.1683 20.3144 -50.916 20.1951L-50.9135 20.1951C-27.5161 19.8105 -17.5019 19.6459 -9.32152 20.5897L-53.8819 23.5857C-120.458 27.4662 -164.367 19.6862 -178 15.3112V17.2279ZM123.139 40.7447C89.6067 30.1305 61.1477 25.5747 51.1097 24.6236C72.9491 24.6236 125.336 26.7921 160.171 35.4661C195.005 44.1401 230.165 46.4037 243.391 46.4513C217.279 48.9717 156.671 51.359 123.139 40.7447Z" fill="#A36EBA"/>
</svg>
