<svg width="302" height="74" viewBox="0 0 302 74" fill="none" xmlns="http://www.w3.org/2000/svg">
<path fill-rule="evenodd" clip-rule="evenodd" d="M-178 56.7721C-164.249 50.691 -120.897 38.3109 -57.4997 37.4396C-7.08258 36.7467 38.5192 27.7328 78.8611 19.7586C101.929 15.1988 123.277 10.979 142.823 8.84933C177.414 5.08009 231.176 9.32505 272.304 12.5724C295.053 14.3687 313.937 15.8598 323.573 15.5204C345.217 14.758 388.876 4.85579 408 0V15.4078C407.947 15.4072 406.897 15.6341 390.908 20.3813C368.379 27.0705 304.094 33.4113 274.522 35.361C335.727 37.4154 389.009 25.0892 408 18.6693V74.4708H-178V73.3833C-168.301 67.4865 -119.848 52.8396 -76.8743 53.4103C-66.7065 53.5453 -58.1683 53.6856 -50.916 53.8049L-50.9135 53.8049C-27.5161 54.1895 -17.5019 54.3541 -9.32152 53.4103L-53.8819 50.4143C-120.458 46.5338 -164.367 54.3138 -178 58.6888V56.7721ZM123.139 33.2553C89.6067 43.8695 61.1477 48.4253 51.1097 49.3764C72.9491 49.3764 125.336 47.2079 160.171 38.5339C195.005 29.8599 230.165 27.5963 243.391 27.5487C217.279 25.0283 156.671 22.641 123.139 33.2553Z" fill="#A36EBA"/>
</svg>
