<svg width="98" height="20" viewBox="0 0 98 20" fill="none" xmlns="http://www.w3.org/2000/svg">
<path d="M26 12.2355C26 10.6894 26.2743 9.33882 26.8228 8.18368C27.389 7.02855 28.1499 6.13998 29.1054 5.51799C30.0786 4.89599 31.158 4.58499 32.3435 4.58499C33.3698 4.58499 34.2546 4.78936 34.9977 5.1981C35.7409 5.60684 36.316 6.15775 36.723 6.85083V4.77159H41.9252V19.7261H36.723V17.6469C36.316 18.34 35.7321 18.8909 34.9712 19.2996C34.228 19.7084 33.3521 19.9127 32.3435 19.9127C31.158 19.9127 30.0786 19.6017 29.1054 18.9797C28.1499 18.3577 27.389 17.4692 26.8228 16.314C26.2743 15.1411 26 13.7816 26 12.2355ZM36.723 12.2355C36.723 11.2759 36.4576 10.5206 35.9267 9.9697C35.4136 9.41879 34.7766 9.14333 34.0157 9.14333C33.2371 9.14333 32.5913 9.41879 32.0781 9.9697C31.565 10.5028 31.3084 11.2581 31.3084 12.2355C31.3084 13.1952 31.565 13.9594 32.0781 14.528C32.5913 15.0789 33.2371 15.3544 34.0157 15.3544C34.7766 15.3544 35.4136 15.0789 35.9267 14.528C36.4576 13.9771 36.723 13.213 36.723 12.2355Z" fill="#A36EBA"/>
<path d="M50.0919 0V19.7261H44.8896V0H50.0919Z" fill="#A36EBA"/>
<path d="M61.8398 15.2744V19.7261H59.5837C55.7794 19.7261 53.8772 17.8335 53.8772 14.0482V9.11667H52.0458V4.77159H53.8772V1.14625H59.106V4.77159H61.8133V9.11667H59.106V14.1282C59.106 14.5369 59.1945 14.8301 59.3714 15.0079C59.5661 15.1856 59.8846 15.2744 60.3269 15.2744H61.8398Z" fill="#A36EBA"/>
<path d="M78.4524 12.0756C78.4524 12.4843 78.4259 12.8931 78.3728 13.3018H68.5257C68.5788 14.1193 68.8 14.7324 69.1893 15.1411C69.5962 15.5321 70.1094 15.7276 70.7287 15.7276C71.5957 15.7276 72.215 15.3366 72.5866 14.5547H78.1339C77.9039 15.5854 77.4527 16.5095 76.7803 17.327C76.1256 18.1267 75.2939 18.7576 74.2853 19.2197C73.2767 19.6817 72.162 19.9127 70.941 19.9127C69.4724 19.9127 68.163 19.6017 67.0128 18.9797C65.8804 18.3577 64.9868 17.4692 64.3321 16.314C63.6951 15.1589 63.3766 13.7994 63.3766 12.2355C63.3766 10.6717 63.6951 9.32104 64.3321 8.18368C64.9691 7.02855 65.8538 6.13998 66.9863 5.51799C68.1364 4.89599 69.4547 4.58499 70.941 4.58499C72.4097 4.58499 73.7102 4.88711 74.8427 5.49133C75.9752 6.09555 76.8599 6.96635 77.4969 8.10371C78.1339 9.2233 78.4524 10.5473 78.4524 12.0756ZM73.144 10.7694C73.144 10.1296 72.9317 9.63204 72.507 9.27662C72.0823 8.90342 71.5515 8.71682 70.9145 8.71682C70.2775 8.71682 69.7555 8.89453 69.3485 9.24996C68.9415 9.58761 68.6761 10.0941 68.5522 10.7694H73.144Z" fill="#A36EBA"/>
<path d="M85.7836 7.41063C86.3675 6.55761 87.0753 5.8823 87.907 5.3847C88.7386 4.88711 89.6322 4.63831 90.5877 4.63831V10.2096H89.1279C87.9955 10.2096 87.155 10.4318 86.6064 10.876C86.0579 11.3203 85.7836 12.0934 85.7836 13.1952V19.7261H80.5814V4.77159H85.7836V7.41063Z" fill="#A36EBA"/>
<path d="M94.9742 19.9394C94.0541 19.9394 93.3109 19.6906 92.7447 19.193C92.1961 18.6776 91.9219 18.029 91.9219 17.247C91.9219 16.4651 92.1961 15.8165 92.7447 15.3011C93.3109 14.7857 94.0541 14.528 94.9742 14.528C95.8766 14.528 96.6021 14.7857 97.1507 15.3011C97.7169 15.8165 98 16.4651 98 17.247C98 18.0112 97.7169 18.651 97.1507 19.1663C96.6021 19.6817 95.8766 19.9394 94.9742 19.9394Z" fill="#A36EBA"/>
<path fill-rule="evenodd" clip-rule="evenodd" d="M2.50641 8.3653H0V4.65253H2.50641C3.54662 4.65252 4.54789 4.91647 5.42487 5.51955C6.29096 6.11515 6.91488 6.95796 7.35303 7.92337C7.5595 8.37831 7.73257 8.48568 7.77265 8.50892C7.82824 8.54115 7.93524 8.58268 8.19586 8.58268H11.3333V4.87092H13.8397C14.88 4.87092 15.8812 5.13487 16.7582 5.73795C17.6243 6.33355 18.2482 7.17635 18.6864 8.14177C18.8928 8.59671 19.0659 8.70408 19.106 8.72731C19.1616 8.75955 19.2686 8.80108 19.5292 8.80108H22.6667V12.5139H19.5292C18.8934 12.5139 18.0688 12.4154 17.2503 11.9409C16.4164 11.4573 15.7731 10.6911 15.3136 9.67879C15.0859 9.17695 14.8494 8.92827 14.6617 8.79919C14.4849 8.6776 14.239 8.58369 13.8397 8.58369H11.3333V12.2955H8.19586C7.56005 12.2955 6.73542 12.197 5.91699 11.7225C5.08306 11.2389 4.43974 10.4727 3.98031 9.4604C3.75255 8.95855 3.51605 8.70987 3.32836 8.58079C3.15155 8.45921 2.90564 8.3653 2.50641 8.3653Z" fill="#A36EBA"/>
<path fill-rule="evenodd" clip-rule="evenodd" d="M2.50641 15.7908H0V12.0781H2.50641C3.54662 12.0781 4.54789 12.342 5.42487 12.9451C6.29096 13.5407 6.91488 14.3835 7.35303 15.3489C7.5595 15.8039 7.73257 15.9112 7.77265 15.9345C7.82824 15.9667 7.93524 16.0082 8.19586 16.0082H11.3333V12.2965H13.8397C14.88 12.2965 15.8812 12.5604 16.7582 13.1635C17.6243 13.7591 18.2482 14.6019 18.6864 15.5673C18.8928 16.0223 19.0659 16.1296 19.106 16.1529C19.1616 16.1851 19.2686 16.2266 19.5292 16.2266H22.6667V19.9394H19.5292C18.8934 19.9394 18.0688 19.841 17.2503 19.3664C16.4164 18.8829 15.7731 18.1167 15.3136 17.1043C15.0859 16.6025 14.8494 16.3538 14.6617 16.2247C14.4849 16.1031 14.239 16.0092 13.8397 16.0092H11.3333V19.721H8.19586C7.56005 19.721 6.73542 19.6226 5.91699 19.148C5.08306 18.6645 4.43974 17.8983 3.98031 16.8859C3.75255 16.3841 3.51605 16.1354 3.32836 16.0063C3.15155 15.8847 2.90564 15.7908 2.50641 15.7908Z" fill="#A36EBA"/>
</svg>
