<svg width="24" height="25" viewBox="0 0 24 25" fill="none" xmlns="http://www.w3.org/2000/svg">
<path fill-rule="evenodd" clip-rule="evenodd" d="M2.71224 13.5839C2.69717 13.3711 2.68951 13.1561 2.68951 12.9394C2.68951 7.96883 6.71895 3.93939 11.6895 3.93939C13.5588 3.93939 15.295 4.50929 16.7339 5.48481C17.9995 5.14654 19.1744 4.96563 20.1659 4.99578C21.2306 5.02816 22.4493 5.32347 23.0594 6.37471L23.0612 6.37795C23.5812 7.28078 23.3884 8.29837 23.0276 9.1242C22.6555 9.97582 22.0054 10.8704 21.191 11.7541C21.0249 11.9343 20.8501 12.1161 20.6671 12.299C20.682 12.5105 20.6895 12.7241 20.6895 12.9394C20.6895 17.91 16.6601 21.9394 11.6895 21.9394C9.81872 21.9394 8.08125 21.3686 6.64175 20.3916C6.39389 20.4581 6.15112 20.5181 5.91396 20.5714C4.74123 20.835 3.64124 20.951 2.71709 20.8476C1.82042 20.7472 0.843293 20.4052 0.319929 19.5047L0.315802 19.4976C-0.285896 18.4446 0.0693461 17.2428 0.574035 16.3059C1.04362 15.4341 1.78674 14.509 2.71224 13.5839ZM4.93951 12.9394C4.93951 9.21147 7.96159 6.18939 11.6895 6.18939C14.9099 6.18939 17.6035 8.44454 18.2773 11.4617C16.8948 12.6988 15.0899 14.0046 13.0024 15.2086C10.9133 16.4136 8.8784 17.3239 7.11472 17.9027C6.00688 16.881 5.24189 15.4932 5.01188 13.9313C5.00845 13.8809 5.00166 13.8307 4.99148 13.7811C4.95718 13.5053 4.93951 13.2244 4.93951 12.9394ZM3.32044 16.2563C2.99109 16.6625 2.73556 17.0376 2.55492 17.3729C2.36664 17.7224 2.28364 17.985 2.25927 18.1632C2.24758 18.2486 2.25083 18.3039 2.25573 18.3352C2.25943 18.3589 2.26437 18.3714 2.26752 18.3778C2.27487 18.3887 2.30218 18.4223 2.38819 18.4654C2.49763 18.5204 2.68212 18.5796 2.96743 18.6115C3.39223 18.6591 3.95171 18.6368 4.63458 18.5282C4.0923 17.8445 3.64729 17.0803 3.32044 16.2563ZM9.63384 19.3707C10.282 19.5777 10.9727 19.6894 11.6895 19.6894C14.9232 19.6894 17.6258 17.4155 18.2855 14.3795C17.0584 15.3327 15.6536 16.2769 14.1266 17.1577C12.5974 18.0397 11.0749 18.7844 9.63384 19.3707ZM20.0599 9.62587C20.4957 9.08853 20.7947 8.61493 20.9658 8.22336C21.0806 7.96051 21.1214 7.77158 21.1285 7.64998C21.1343 7.54848 21.1166 7.51024 21.1123 7.50238C21.1063 7.49261 21.0704 7.44281 20.9289 7.38471C20.7627 7.31653 20.4942 7.25681 20.0975 7.24474C19.7156 7.23313 19.2615 7.26676 18.7431 7.34898C19.2867 8.03394 19.7327 8.79993 20.0599 9.62587Z" fill="#FFACFF"/>
</svg>
