<svg width="98" height="98" viewBox="0 0 98 98" fill="none" xmlns="http://www.w3.org/2000/svg">
<path fill-rule="evenodd" clip-rule="evenodd" d="M12.25 20.4167C12.25 15.9063 15.9063 12.25 20.4167 12.25H28.5833C33.0937 12.25 36.75 15.9063 36.75 20.4167V28.5833C36.75 33.0937 33.0937 36.75 28.5833 36.75H20.4167C15.9063 36.75 12.25 33.0937 12.25 28.5833V20.4167ZM28.5833 20.4167H20.4167V28.5833H28.5833V20.4167ZM49 12.25C51.2552 12.25 53.0833 14.0782 53.0833 16.3333V20.4167C53.0833 22.6718 51.2552 24.5 49 24.5C46.7448 24.5 44.9167 22.6718 44.9167 20.4167V16.3333C44.9167 14.0782 46.7448 12.25 49 12.25ZM61.25 20.4167C61.25 15.9063 64.9063 12.25 69.4167 12.25H77.5833C82.0937 12.25 85.75 15.9063 85.75 20.4167V28.5833C85.75 33.0937 82.0937 36.75 77.5833 36.75H69.4167C64.9063 36.75 61.25 33.0937 61.25 28.5833V20.4167ZM77.5833 20.4167H69.4167V28.5833H77.5833V20.4167ZM49 32.6667C51.2552 32.6667 53.0833 34.4948 53.0833 36.75V44.9167H65.3742C67.6293 44.9167 69.4575 46.7448 69.4575 49C69.4575 51.2552 67.6293 53.0833 65.3742 53.0833H49C46.7448 53.0833 44.9167 51.2552 44.9167 49V36.75C44.9167 34.4948 46.7448 32.6667 49 32.6667ZM12.25 49C12.25 46.7448 14.0782 44.9167 16.3333 44.9167H32.6667C34.9218 44.9167 36.75 46.7448 36.75 49C36.75 51.2552 34.9218 53.0833 32.6667 53.0833H16.3333C14.0782 53.0833 12.25 51.2552 12.25 49ZM77.5833 49C77.5833 46.7448 79.4115 44.9167 81.6667 44.9167H81.7075C83.9627 44.9167 85.7908 46.7448 85.7908 49C85.7908 51.2552 83.9627 53.0833 81.7075 53.0833H81.6667C79.4115 53.0833 77.5833 51.2552 77.5833 49ZM12.25 69.4167C12.25 64.9063 15.9063 61.25 20.4167 61.25H28.5833C33.0937 61.25 36.75 64.9063 36.75 69.4167V77.5833C36.75 82.0937 33.0937 85.75 28.5833 85.75H20.4167C15.9063 85.75 12.25 82.0937 12.25 77.5833V69.4167ZM28.5833 69.4167H20.4167V77.5833H28.5833V69.4167ZM44.9167 65.3333C44.9167 63.0782 46.7448 61.25 49 61.25H57.1667C59.4218 61.25 61.25 63.0782 61.25 65.3333C61.25 67.5885 59.4218 69.4167 57.1667 69.4167H53.0833V81.6667C53.0833 83.9218 51.2552 85.75 49 85.75C46.7448 85.75 44.9167 83.9218 44.9167 81.6667V65.3333ZM69.4167 65.3333C69.4167 63.0782 71.2448 61.25 73.5 61.25H81.6667C83.9218 61.25 85.75 63.0782 85.75 65.3333C85.75 67.5885 83.9218 69.4167 81.6667 69.4167H73.5C71.2448 69.4167 69.4167 67.5885 69.4167 65.3333ZM61.25 81.6667C61.25 79.4115 63.0782 77.5833 65.3333 77.5833H81.6667C83.9218 77.5833 85.75 79.4115 85.75 81.6667C85.75 83.9218 83.9218 85.75 81.6667 85.75H65.3333C63.0782 85.75 61.25 83.9218 61.25 81.6667Z" fill="#1F005C"/>
</svg>
