<svg width="519" height="212" viewBox="0 0 519 212" fill="none" xmlns="http://www.w3.org/2000/svg">
<g clip-path="url(#clip0_552_9393)">
<rect width="519" height="212" fill="#A36EBA" fill-opacity="0.1"/>
<rect x="-23.334" y="112.143" width="573" height="57" transform="rotate(-7.03133 -23.334 112.143)" fill="white"/>
<rect x="-23.334" y="26.1426" width="573" height="57" transform="rotate(-7.03133 -23.334 26.1426)" fill="white"/>
<rect x="-23.334" y="192.143" width="573" height="57" transform="rotate(-7.03133 -23.334 192.143)" fill="white"/>
<path d="M52.2388 123.572L49.1688 136.598L46.1308 136.964L40.0512 125.042L42.7317 124.719L47.3594 134.223L49.5761 123.893L52.2388 123.572ZM63.0343 135.052C61.8668 135.193 60.7615 135.048 59.7185 134.618C58.6754 134.188 57.8098 133.525 57.1215 132.629C56.4318 131.721 56.0129 130.653 55.8649 129.426C55.7183 128.211 55.8727 127.086 56.3281 126.052C56.7821 125.006 57.4645 124.15 58.3753 123.485C59.2862 122.819 60.3253 122.415 61.4929 122.274C62.6723 122.132 63.7776 122.277 64.8087 122.708C65.8517 123.139 66.7121 123.808 67.3899 124.718C68.0782 125.614 68.4956 126.669 68.6422 127.885C68.7903 129.112 68.6373 130.248 68.1833 131.294C67.7398 132.327 67.0626 133.176 66.1518 133.842C65.241 134.508 64.2018 134.911 63.0343 135.052ZM62.7648 132.818C63.5154 132.727 64.1565 132.481 64.6881 132.078C65.2182 131.664 65.6061 131.121 65.8516 130.451C66.0971 129.781 66.1695 129.029 66.0689 128.195C65.9683 127.361 65.7198 126.654 65.3234 126.073C64.9255 125.48 64.4206 125.052 63.8085 124.787C63.1964 124.523 62.5151 124.436 61.7645 124.526C61.0139 124.617 60.3669 124.864 59.8234 125.268C59.2918 125.671 58.9032 126.207 58.6577 126.877C58.4108 127.535 58.3376 128.282 58.4382 129.116C58.5388 129.95 58.7881 130.663 59.1859 131.255C59.5837 131.848 60.0894 132.283 60.703 132.559C61.327 132.822 62.0143 132.909 62.7648 132.818ZM75.5084 131.408L79.6186 130.912L79.8579 132.895L73.2459 133.693L71.7411 121.219L74.2429 120.918L75.5084 131.408ZM84.395 119.693L85.3264 127.413C85.4284 128.259 85.7272 128.881 86.2226 129.281C86.7166 129.669 87.3627 129.814 88.1609 129.718C88.971 129.62 89.5699 129.324 89.9575 128.83C90.3437 128.325 90.4858 127.649 90.3837 126.803L89.4524 119.083L91.9721 118.779L92.9013 126.481C93.0292 127.541 92.9054 128.469 92.5299 129.263C92.1648 130.045 91.6174 130.667 90.8876 131.13C90.1697 131.591 89.3401 131.878 88.3989 131.992C87.4697 132.104 86.6015 132.021 85.7945 131.744C84.9994 131.465 84.3376 130.989 83.8091 130.315C83.2792 129.63 82.9503 128.757 82.8224 127.697L81.8932 119.995L84.395 119.693ZM108.548 129.434L106.047 129.736L99.349 121.859L100.382 130.419L97.8798 130.721L96.3728 118.23L98.8747 117.928L105.574 125.822L104.54 117.244L107.041 116.943L108.548 129.434ZM119.99 115.399L120.234 117.418L116.91 117.819L118.171 128.273L115.669 128.575L114.408 118.121L111.084 118.522L110.84 116.503L119.99 115.399ZM126.547 116.656L126.924 119.784L131.123 119.277L131.363 121.261L127.163 121.767L127.562 125.073L132.298 124.502L132.543 126.539L125.306 127.412L123.799 114.921L131.036 114.048L131.282 116.085L126.547 116.656ZM138.043 115.27L138.421 118.397L142.62 117.89L142.859 119.874L138.66 120.38L139.059 123.686L143.794 123.115L144.04 125.152L136.803 126.026L135.296 113.534L142.533 112.661L142.779 114.698L138.043 115.27ZM154.733 123.862L151.394 119.334L150.215 119.476L150.801 124.337L148.299 124.639L146.795 112.165L151.477 111.6C152.442 111.484 153.284 111.557 154.005 111.821C154.725 112.073 155.286 112.47 155.69 113.014C156.105 113.544 156.355 114.166 156.441 114.881C156.54 115.703 156.392 116.477 155.996 117.201C155.598 117.914 154.944 118.452 154.033 118.816L157.628 123.513L154.733 123.862ZM149.988 117.6L152.079 117.347C152.758 117.265 153.245 117.044 153.54 116.682C153.833 116.308 153.945 115.829 153.874 115.245C153.805 114.673 153.585 114.253 153.215 113.983C152.842 113.702 152.316 113.602 151.637 113.684L149.546 113.936L149.988 117.6ZM166.055 122.623C165.185 122.728 164.381 122.674 163.642 122.461C162.915 122.247 162.316 121.884 161.843 121.373C161.37 120.862 161.082 120.226 160.978 119.465L163.659 119.141C163.756 119.649 163.984 120.033 164.341 120.292C164.711 120.55 165.182 120.644 165.754 120.575C166.337 120.504 166.779 120.312 167.08 119.998C167.379 119.672 167.501 119.282 167.447 118.829C167.402 118.46 167.252 118.17 166.997 117.959C166.742 117.748 166.434 117.598 166.073 117.509C165.722 117.406 165.238 117.307 164.623 117.212C163.784 117.072 163.095 116.919 162.555 116.754C162.026 116.577 161.549 116.278 161.123 115.857C160.708 115.424 160.453 114.814 160.359 114.028C160.269 113.289 160.376 112.624 160.68 112.031C160.983 111.438 161.451 110.959 162.084 110.593C162.715 110.214 163.459 109.973 164.317 109.87C165.604 109.715 166.684 109.905 167.559 110.44C168.443 110.961 168.995 111.777 169.214 112.887L166.462 113.219C166.386 112.793 166.159 112.464 165.78 112.232C165.412 111.986 164.948 111.897 164.388 111.964C163.9 112.023 163.522 112.196 163.254 112.482C162.998 112.767 162.899 113.147 162.957 113.624C162.997 113.957 163.138 114.224 163.38 114.425C163.632 114.612 163.928 114.758 164.267 114.862C164.616 114.953 165.099 115.051 165.717 115.158C166.555 115.299 167.245 115.457 167.786 115.634C168.327 115.81 168.811 116.114 169.238 116.546C169.665 116.978 169.925 117.582 170.018 118.356C170.099 119.023 170.001 119.664 169.724 120.277C169.448 120.891 168.997 121.41 168.371 121.836C167.745 122.25 166.972 122.513 166.055 122.623ZM196.021 106.226L194.041 119.12L191.092 119.476L187.68 110.877L186.303 120.054L183.374 120.425L178.508 108.339L181.188 108.016L184.555 117.436L185.924 107.444L188.712 107.108L192.268 116.451L193.322 106.552L196.021 106.226ZM208.507 114.964L203.539 115.563L203.003 118.039L200.376 118.356L203.355 105.324L206.268 104.972L212.26 116.922L209.615 117.241L208.507 114.964ZM207.586 113.044L205.152 108.044L203.976 113.48L207.586 113.044ZM226.591 115.194L224.089 115.495L217.392 107.619L218.424 116.179L215.922 116.481L214.415 103.989L216.917 103.687L223.617 111.582L222.582 103.004L225.084 102.702L226.591 115.194ZM238.033 101.158L238.276 103.177L234.952 103.578L236.214 114.033L233.712 114.335L232.45 103.88L229.127 104.281L228.883 102.262L238.033 101.158ZM244.589 102.416L244.966 105.543L249.166 105.037L249.405 107.02L245.206 107.527L245.605 110.833L250.34 110.262L250.586 112.299L243.348 113.172L241.842 100.68L249.079 99.8074L249.325 101.845L244.589 102.416ZM257.701 98.7854C259.011 98.6273 260.192 98.7447 261.242 99.1377C262.305 99.5293 263.162 100.169 263.813 101.058C264.474 101.933 264.881 102.996 265.032 104.247C265.183 105.498 265.041 106.627 264.606 107.634C264.182 108.628 263.501 109.441 262.562 110.074C261.635 110.706 260.516 111.101 259.206 111.259L254.845 111.785L253.34 99.3114L257.701 98.7854ZM258.86 109.143C260.17 108.985 261.14 108.505 261.768 107.704C262.397 106.903 262.633 105.854 262.476 104.555C262.32 103.256 261.84 102.287 261.037 101.646C260.234 100.994 259.176 100.747 257.866 100.905L256.097 101.118L257.09 109.357L258.86 109.143ZM282.868 95.7493L283.111 97.7686L279.787 98.1696L281.049 108.624L278.547 108.926L277.286 98.4714L273.962 98.8724L273.718 96.8531L282.868 95.7493ZM293.989 107.19C292.821 107.33 291.716 107.186 290.673 106.756C289.63 106.325 288.764 105.662 288.076 104.766C287.386 103.858 286.967 102.791 286.819 101.564C286.673 100.349 286.827 99.2241 287.282 98.1901C287.736 97.1442 288.419 96.2883 289.33 95.6224C290.24 94.9565 291.28 94.5531 292.447 94.4123C293.627 94.27 294.732 94.4147 295.763 94.8463C296.806 95.2764 297.666 95.9462 298.344 96.8556C299.033 97.7516 299.45 98.8072 299.597 100.022C299.745 101.249 299.592 102.386 299.138 103.432C298.694 104.464 298.017 105.314 297.106 105.98C296.195 106.645 295.156 107.049 293.989 107.19ZM293.719 104.956C294.47 104.865 295.111 104.619 295.642 104.216C296.173 103.802 296.56 103.259 296.806 102.589C297.051 101.919 297.124 101.167 297.023 100.333C296.923 99.4989 296.674 98.7916 296.278 98.2108C295.88 97.6182 295.375 97.1896 294.763 96.925C294.151 96.6604 293.469 96.5734 292.719 96.664C291.968 96.7545 291.321 97.0018 290.778 97.4058C290.246 97.8084 289.858 98.3448 289.612 99.015C289.365 99.6733 289.292 100.419 289.393 101.253C289.493 102.087 289.742 102.801 290.14 103.393C290.538 103.986 291.044 104.42 291.657 104.697C292.281 104.96 292.969 105.046 293.719 104.956ZM314.766 104.683C313.896 104.788 313.092 104.734 312.353 104.521C311.626 104.306 311.026 103.944 310.554 103.433C310.081 102.922 309.793 102.285 309.689 101.524L312.37 101.201C312.467 101.709 312.695 102.093 313.052 102.352C313.422 102.609 313.892 102.703 314.464 102.634C315.048 102.564 315.49 102.372 315.791 102.057C316.09 101.731 316.212 101.342 316.157 100.889C316.113 100.52 315.963 100.23 315.708 100.019C315.453 99.8077 315.145 99.6576 314.783 99.5682C314.433 99.4655 313.949 99.3666 313.333 99.2717C312.495 99.1312 311.805 98.9786 311.266 98.8141C310.737 98.6362 310.259 98.3372 309.834 97.9171C309.419 97.4837 309.164 96.8738 309.069 96.0875C308.98 95.3489 309.087 94.6832 309.391 94.0907C309.694 93.4981 310.162 93.0186 310.794 92.6522C311.426 92.2738 312.17 92.0329 313.028 91.9295C314.315 91.7742 315.395 91.9642 316.269 92.4993C317.154 93.0211 317.706 93.8369 317.924 94.9467L315.172 95.2787C315.097 94.8527 314.87 94.5235 314.491 94.2912C314.123 94.0455 313.659 93.9564 313.099 94.024C312.611 94.0829 312.233 94.2554 311.965 94.5416C311.709 94.8262 311.61 95.2068 311.668 95.6834C311.708 96.017 311.849 96.284 312.091 96.4845C312.343 96.6716 312.638 96.8173 312.977 96.9214C313.327 97.0122 313.81 97.1111 314.427 97.2179C315.266 97.3584 315.956 97.517 316.497 97.6934C317.038 97.8699 317.522 98.1741 317.949 98.6061C318.376 99.0381 318.636 99.6413 318.729 100.416C318.81 101.083 318.712 101.723 318.435 102.337C318.159 102.95 317.708 103.47 317.082 103.896C316.455 104.31 315.683 104.572 314.766 104.683ZM330.681 100.225L325.713 100.824L325.178 103.3L322.551 103.617L325.529 90.5844L328.442 90.233L334.435 102.183L331.79 102.502L330.681 100.225ZM329.761 98.3052L327.326 93.3048L326.151 98.7407L329.761 98.3052ZM347.797 87.9162L344.727 100.942L341.689 101.308L335.609 89.3865L338.29 89.0632L342.918 98.5673L345.134 88.2375L347.797 87.9162ZM354.028 89.2133L354.405 92.3406L358.605 91.834L358.844 93.8176L354.645 94.3242L355.043 97.6302L359.779 97.0589L360.025 99.0962L352.787 99.9693L351.28 87.4779L358.518 86.6047L358.764 88.642L354.028 89.2133ZM377.512 84.3315L377.755 86.3509L374.431 86.7518L375.692 97.206L373.191 97.5079L371.929 87.0537L368.605 87.4547L368.362 85.4353L377.512 84.3315ZM391.67 82.6235L393.174 95.097L390.673 95.3989L390.032 90.0913L384.689 90.736L385.329 96.0435L382.827 96.3453L381.323 83.8717L383.824 83.5699L384.443 88.6987L389.786 88.0541L389.168 82.9253L391.67 82.6235ZM398.863 83.8044L399.24 86.9317L403.44 86.4251L403.679 88.4087L399.48 88.9153L399.879 92.2214L404.614 91.6501L404.86 93.6873L397.622 94.5604L396.115 82.069L403.353 81.1959L403.599 83.2331L398.863 83.8044ZM416.604 81.6642L416.981 84.7915L421.18 84.2849L421.42 86.2685L417.22 86.7751L417.619 90.0812L422.355 89.5099L422.6 91.5471L415.363 92.4202L413.856 79.9288L421.094 79.0557L421.339 81.0929L416.604 81.6642ZM434.221 87.7338L429.254 88.3331L428.718 90.8091L426.091 91.126L429.07 78.0934L431.983 77.742L437.975 89.6923L435.33 90.0114L434.221 87.7338ZM433.301 85.8142L430.867 80.8138L429.691 86.2497L433.301 85.8142ZM448.071 88.4744L444.732 83.9456L443.553 84.0879L444.139 88.9487L441.637 89.2505L440.133 76.7769L444.815 76.2121C445.78 76.0957 446.622 76.1693 447.343 76.4328C448.063 76.6845 448.624 77.0821 449.028 77.6256C449.443 78.1558 449.693 78.7783 449.779 79.4931C449.878 80.3151 449.73 81.0885 449.334 81.8131C448.936 82.5259 448.282 83.0641 447.371 83.4278L450.966 88.1251L448.071 88.4744ZM443.326 82.2115L445.417 81.9593C446.096 81.8774 446.583 81.6555 446.878 81.2935C447.171 80.9197 447.283 80.4409 447.212 79.8572C447.143 79.2853 446.923 78.8646 446.552 78.5951C446.18 78.3137 445.654 78.2139 444.975 78.2959L442.884 78.5481L443.326 82.2115ZM462.055 74.1323L462.298 76.1516L458.975 76.5526L460.236 87.0068L457.734 87.3086L456.473 76.8544L453.149 77.2554L452.905 75.2361L462.055 74.1323ZM476.213 72.4242L477.718 84.8978L475.216 85.1996L474.575 79.8921L469.232 80.5367L469.873 85.8442L467.371 86.1461L465.866 73.6725L468.368 73.3707L468.986 78.4995L474.33 77.8549L473.711 72.7261L476.213 72.4242Z" fill="#1F005C"/>
</g>
<rect x="0.5" y="0.5" width="518" height="211" stroke="#1F005C"/>
<defs>
<clipPath id="clip0_552_9393">
<rect width="519" height="212" fill="white"/>
</clipPath>
</defs>
</svg>
