<svg width="20" height="21" viewBox="0 0 20 21" fill="none" xmlns="http://www.w3.org/2000/svg">
<path fill-rule="evenodd" clip-rule="evenodd" d="M2.25203 8.93939H3C4.65685 8.93939 6 10.2825 6 11.9394V12.9394C6 13.4917 6.44772 13.9394 7 13.9394C8.65685 13.9394 10 15.2825 10 16.9394V18.9394C10.6906 18.9394 11.3608 18.8519 12 18.6874V16.9394C12 15.2825 13.3431 13.9394 15 13.9394H17.4185C17.7935 13.013 18 12.0003 18 10.9394C18 9.87849 17.7935 8.86582 17.4185 7.93939L17 7.93939C16.4477 7.93939 16 8.38711 16 8.93939C16 10.5962 14.6569 11.9394 13 11.9394C11.3431 11.9394 10 10.5962 10 8.93939C10 8.38711 9.55228 7.93939 9 7.93939H8.5C6.65029 7.93939 5.13571 6.50451 5.00863 4.68711C3.67527 5.75296 2.69034 7.23646 2.25203 8.93939ZM5.55564 1.97881C2.26289 3.61513 0 7.013 0 10.9394C0 16.4622 4.47715 20.9394 10 20.9394C15.5228 20.9394 20 16.4622 20 10.9394C20 9.34327 19.6261 7.83448 18.961 6.49586C18.9607 6.49525 18.9604 6.49464 18.9601 6.49403C17.3236 3.20182 13.926 0.939392 10 0.939392C8.40355 0.939392 6.89447 1.31349 5.55564 1.97881ZM7 3.52091V4.43939C7 5.26782 7.67157 5.93939 8.5 5.93939H9C10.6569 5.93939 12 7.28254 12 8.93939C12 9.49168 12.4477 9.93939 13 9.93939C13.5523 9.93939 14 9.49168 14 8.93939C14 7.52046 14.9851 6.3316 16.3087 6.01943C14.8446 4.1447 12.563 2.93939 10 2.93939C8.9391 2.93939 7.92643 3.1459 7 3.52091ZM16.2454 15.9394H15C14.4477 15.9394 14 16.3871 14 16.9394V17.8691C14.8634 17.3697 15.6249 16.7134 16.2454 15.9394ZM8 18.6874C4.54955 17.7993 2 14.6671 2 10.9394H3C3.55228 10.9394 4 11.3871 4 11.9394V12.9394C4 14.5962 5.34315 15.9394 7 15.9394C7.55228 15.9394 8 16.3871 8 16.9394V18.6874Z" fill="#FFACFF"/>
</svg>
