<svg width="74" height="74" viewBox="0 0 74 74" fill="none" xmlns="http://www.w3.org/2000/svg">
<path fill-rule="evenodd" clip-rule="evenodd" d="M0.25 8.41667C0.25 3.90634 3.90634 0.25 8.41667 0.25H16.5833C21.0937 0.25 24.75 3.90634 24.75 8.41667V16.5833C24.75 21.0937 21.0937 24.75 16.5833 24.75H8.41667C3.90634 24.75 0.25 21.0937 0.25 16.5833V8.41667ZM16.5833 8.41667H8.41667V16.5833H16.5833V8.41667ZM37 0.25C39.2552 0.25 41.0833 2.07817 41.0833 4.33333V8.41667C41.0833 10.6718 39.2552 12.5 37 12.5C34.7448 12.5 32.9167 10.6718 32.9167 8.41667V4.33333C32.9167 2.07817 34.7448 0.25 37 0.25ZM49.25 8.41667C49.25 3.90634 52.9063 0.25 57.4167 0.25H65.5833C70.0937 0.25 73.75 3.90634 73.75 8.41667V16.5833C73.75 21.0937 70.0937 24.75 65.5833 24.75H57.4167C52.9063 24.75 49.25 21.0937 49.25 16.5833V8.41667ZM65.5833 8.41667H57.4167V16.5833H65.5833V8.41667ZM37 20.6667C39.2552 20.6667 41.0833 22.4948 41.0833 24.75V32.9167H53.3742C55.6293 32.9167 57.4575 34.7448 57.4575 37C57.4575 39.2552 55.6293 41.0833 53.3742 41.0833H37C34.7448 41.0833 32.9167 39.2552 32.9167 37V24.75C32.9167 22.4948 34.7448 20.6667 37 20.6667ZM0.25 37C0.25 34.7448 2.07817 32.9167 4.33333 32.9167H20.6667C22.9218 32.9167 24.75 34.7448 24.75 37C24.75 39.2552 22.9218 41.0833 20.6667 41.0833H4.33333C2.07817 41.0833 0.25 39.2552 0.25 37ZM65.5833 37C65.5833 34.7448 67.4115 32.9167 69.6667 32.9167H69.7075C71.9627 32.9167 73.7908 34.7448 73.7908 37C73.7908 39.2552 71.9627 41.0833 69.7075 41.0833H69.6667C67.4115 41.0833 65.5833 39.2552 65.5833 37ZM0.25 57.4167C0.25 52.9063 3.90634 49.25 8.41667 49.25H16.5833C21.0937 49.25 24.75 52.9063 24.75 57.4167V65.5833C24.75 70.0937 21.0937 73.75 16.5833 73.75H8.41667C3.90634 73.75 0.25 70.0937 0.25 65.5833V57.4167ZM16.5833 57.4167H8.41667V65.5833H16.5833V57.4167ZM32.9167 53.3333C32.9167 51.0782 34.7448 49.25 37 49.25H45.1667C47.4218 49.25 49.25 51.0782 49.25 53.3333C49.25 55.5885 47.4218 57.4167 45.1667 57.4167H41.0833V69.6667C41.0833 71.9218 39.2552 73.75 37 73.75C34.7448 73.75 32.9167 71.9218 32.9167 69.6667V53.3333ZM57.4167 53.3333C57.4167 51.0782 59.2448 49.25 61.5 49.25H69.6667C71.9218 49.25 73.75 51.0782 73.75 53.3333C73.75 55.5885 71.9218 57.4167 69.6667 57.4167H61.5C59.2448 57.4167 57.4167 55.5885 57.4167 53.3333ZM49.25 69.6667C49.25 67.4115 51.0782 65.5833 53.3333 65.5833H69.6667C71.9218 65.5833 73.75 67.4115 73.75 69.6667C73.75 71.9218 71.9218 73.75 69.6667 73.75H53.3333C51.0782 73.75 49.25 71.9218 49.25 69.6667Z" fill="#1F005C"/>
</svg>
