<svg
  width="24"
  height="17"
  viewBox="0 0 24 17"
  fill="none"
  xmlns="http://www.w3.org/2000/svg"
>
<path
    fill-rule="evenodd"
    clip-rule="evenodd"
    d="M12.9836 0.763376L12.9941 0.773715L16.6272 4.40682H17.5759C21.1157 4.40682 22.942 6.21823 23.6536 7.17032C23.8783 7.46681 24 7.82868 24 8.20083C24 8.57299 23.8783 8.93487 23.6536 9.23136C22.942 10.1834 21.1156 11.9948 17.5759 11.9948H16.6272L12.9941 15.6279L12.9836 15.6383C12.6594 15.9534 12.2244 16.1284 11.7725 16.1258L7.83513 16.1319H7.83293C7.52093 16.1317 7.21484 16.0468 6.9473 15.8863C6.67976 15.7258 6.46083 15.4956 6.31384 15.2204C6.16686 14.9452 6.09734 14.6353 6.11272 14.3236C6.12807 14.0124 6.22756 13.7111 6.40058 13.4518L8.26789 10.6481L8.26789 5.75358L6.40111 2.95063L6.4005 2.94972C6.22752 2.69052 6.12806 2.38927 6.1127 2.07801C6.09733 1.7664 6.16684 1.45645 6.31383 1.18125C6.46081 0.906042 6.67975 0.675903 6.94729 0.515383C7.21483 0.354864 7.52092 0.269987 7.83292 0.269806H7.83511L11.7725 0.275894C12.2244 0.273251 12.6594 0.448258 12.9836 0.763376ZM11.6395 2.34365L13.7027 4.40682L9.85556 4.40682L8.47822 2.33877L11.6395 2.34365ZM17.5759 6.47478C20.0052 6.47478 21.2767 7.55414 21.8309 8.20083C21.2767 8.84752 20.0052 9.92689 17.5759 9.92689H10.3358L10.3358 6.47478H17.5759ZM9.85556 11.9948L8.47824 14.0629L11.6395 14.058L13.7027 11.9948H9.85556Z"
    fill="white"
  />
<path
    fill-rule="evenodd"
    clip-rule="evenodd"
    d="M2.95932 7.98715C3.05822 8.04923 3.16251 8.11122 3.27157 8.17171C4.12837 8.64689 5.12506 8.9464 6.08507 8.69009C6.68536 8.52981 7.30192 8.88652 7.4622 9.48681C7.62247 10.0871 7.26576 10.7037 6.66547 10.8639C4.89428 11.3368 3.26584 10.7414 2.1803 10.1394C1.62478 9.83126 1.17074 9.49954 0.85525 9.24523C0.696615 9.11735 0.570642 9.00713 0.481893 8.92646C0.43746 8.88608 0.402185 8.85294 0.376637 8.82852L0.34562 8.79856L0.335677 8.78878L0.332117 8.78525L0.330693 8.78383C0.330693 8.78383 1.48731e-06 8.46708 1.48731e-06 7.98715C-0.000808521 7.49442 0.329506 7.19165 0.329506 7.19165L0.330693 7.19047L0.332117 7.18905L0.335677 7.18552L0.34562 7.17574L0.376636 7.14577C0.402185 7.12135 0.43746 7.08822 0.481892 7.04783C0.570642 6.96717 0.696615 6.85694 0.85525 6.72907C1.17074 6.47475 1.62478 6.14304 2.1803 5.83494C3.26584 5.23289 4.89428 4.63747 6.66547 5.11036C7.26576 5.27063 7.62247 5.88719 7.4622 6.48748C7.30193 7.08778 6.68536 7.44448 6.08507 7.28421C5.12506 7.0279 4.12837 7.3274 3.27157 7.80259C3.16251 7.86307 3.05822 7.92507 2.95932 7.98715Z"
    fill="white"
  />
</svg>
