<svg width="24" height="19" viewBox="0 0 24 19" fill="none" xmlns="http://www.w3.org/2000/svg">
<path fill-rule="evenodd" clip-rule="evenodd" d="M2.71223 10.5839C2.69716 10.3711 2.6895 10.1561 2.6895 9.93939C2.6895 4.96883 6.71894 0.939392 11.6895 0.939392C13.5588 0.939392 15.295 1.50929 16.7338 2.48481C17.9995 2.14654 19.1744 1.96563 20.1659 1.99578C21.2306 2.02816 22.4493 2.32347 23.0593 3.37471L23.0612 3.37795C23.5812 4.28078 23.3884 5.29837 23.0276 6.1242C22.6555 6.97582 22.0054 7.87036 21.191 8.75414C21.0249 8.93433 20.8501 9.11608 20.6671 9.29899C20.6819 9.51053 20.6895 9.72408 20.6895 9.93939C20.6895 14.91 16.6601 18.9394 11.6895 18.9394C9.81871 18.9394 8.08123 18.3686 6.64173 17.3916C6.39388 17.4581 6.15111 17.5181 5.91394 17.5714C4.74122 17.835 3.64122 17.951 2.71708 17.8476C1.82041 17.7472 0.843282 17.4052 0.319917 16.5047L0.315791 16.4976C-0.285907 15.4446 0.0693347 14.2428 0.574023 13.3059C1.04361 12.4341 1.78673 11.509 2.71223 10.5839ZM4.9395 9.93939C4.9395 6.21147 7.96158 3.18939 11.6895 3.18939C14.9098 3.18939 17.6035 5.44454 18.2773 8.46174C16.8948 9.69882 15.0899 11.0046 13.0024 12.2086C10.9133 13.4136 8.87839 14.3239 7.11471 14.9027C6.00687 13.881 5.24187 12.4932 5.01186 10.9313C5.00844 10.8809 5.00165 10.8307 4.99147 10.7811C4.95717 10.5053 4.9395 10.2244 4.9395 9.93939ZM3.32043 13.2563C2.99108 13.6625 2.73555 14.0376 2.55491 14.3729C2.36663 14.7224 2.28363 14.985 2.25926 15.1632C2.24757 15.2486 2.25082 15.3039 2.25572 15.3352C2.25942 15.3589 2.26436 15.3714 2.26751 15.3778C2.27486 15.3887 2.30217 15.4223 2.38818 15.4654C2.49761 15.5204 2.68211 15.5796 2.96742 15.6115C3.39222 15.6591 3.9517 15.6368 4.63457 15.5282C4.09229 14.8445 3.64727 14.0803 3.32043 13.2563ZM9.63383 16.3707C10.282 16.5777 10.9727 16.6894 11.6895 16.6894C14.9232 16.6894 17.6257 14.4155 18.2855 11.3795C17.0584 12.3327 15.6536 13.2769 14.1266 14.1577C12.5974 15.0397 11.0749 15.7844 9.63383 16.3707ZM20.0599 6.62587C20.4957 6.08853 20.7947 5.61493 20.9658 5.22336C21.0806 4.96051 21.1214 4.77158 21.1285 4.64998C21.1343 4.54848 21.1166 4.51024 21.1123 4.50238C21.1063 4.49261 21.0704 4.44281 20.9289 4.38471C20.7627 4.31653 20.4942 4.25681 20.0975 4.24474C19.7156 4.23313 19.2615 4.26676 18.7431 4.34898C19.2867 5.03394 19.7327 5.79993 20.0599 6.62587Z" fill="#FFACFF"/>
</svg>
