<svg width="24" height="24" viewBox="0 0 24 24" fill="none" xmlns="http://www.w3.org/2000/svg">
<path fill-rule="evenodd" clip-rule="evenodd" d="M2.71223 12.6445C2.69716 12.4317 2.6895 12.2167 2.6895 12C2.6895 7.02944 6.71894 3 11.6895 3C13.5588 3 15.295 3.56989 16.7338 4.54542C17.9995 4.20714 19.1744 4.02624 20.1659 4.05639C21.2306 4.08877 22.4493 4.38408 23.0593 5.43532L23.0612 5.43856C23.5812 6.34139 23.3884 7.35898 23.0276 8.1848C22.6555 9.03643 22.0054 9.93097 21.191 10.8147C21.0249 10.9949 20.8501 11.1767 20.6671 11.3596C20.6819 11.5711 20.6895 11.7847 20.6895 12C20.6895 16.9706 16.6601 21 11.6895 21C9.81871 21 8.08123 20.4292 6.64173 19.4523C6.39388 19.5187 6.15111 19.5787 5.91394 19.632C4.74122 19.8956 3.64122 20.0116 2.71708 19.9082C1.82041 19.8078 0.843282 19.4658 0.319917 18.5653L0.315791 18.5582C-0.285907 17.5052 0.0693347 16.3034 0.574023 15.3665C1.04361 14.4947 1.78673 13.5696 2.71223 12.6445ZM4.9395 12C4.9395 8.27208 7.96158 5.25 11.6895 5.25C14.9098 5.25 17.6035 7.50515 18.2773 10.5223C16.8948 11.7594 15.0899 13.0652 13.0024 14.2692C10.9133 15.4742 8.87839 16.3845 7.11471 16.9633C6.00687 15.9416 5.24187 14.5538 5.01186 12.9919C5.00844 12.9415 5.00165 12.8913 4.99147 12.8417C4.95717 12.5659 4.9395 12.285 4.9395 12ZM3.32043 15.3169C2.99108 15.7231 2.73555 16.0982 2.55491 16.4335C2.36663 16.7831 2.28363 17.0456 2.25926 17.2238C2.24757 17.3092 2.25082 17.3645 2.25572 17.3958C2.25942 17.4195 2.26436 17.432 2.26751 17.4384C2.27486 17.4493 2.30217 17.4829 2.38818 17.5261C2.49761 17.581 2.68211 17.6402 2.96742 17.6721C3.39222 17.7197 3.9517 17.6975 4.63457 17.5888C4.09229 16.9052 3.64727 16.1409 3.32043 15.3169ZM9.63383 18.4313C10.282 18.6383 10.9727 18.75 11.6895 18.75C14.9232 18.75 17.6257 16.4762 18.2855 13.4402C17.0584 14.3933 15.6536 15.3375 14.1266 16.2183C12.5974 17.1003 11.0749 17.845 9.63383 18.4313ZM20.0599 8.68648C20.4957 8.14913 20.7947 7.67554 20.9658 7.28397C21.0806 7.02112 21.1214 6.83219 21.1285 6.71059C21.1343 6.60909 21.1166 6.57085 21.1123 6.56299C21.1063 6.55322 21.0704 6.50342 20.9289 6.44532C20.7627 6.37714 20.4942 6.31742 20.0975 6.30535C19.7156 6.29374 19.2615 6.32737 18.7431 6.40958C19.2867 7.09455 19.7327 7.86053 20.0599 8.68648Z" fill="#ffacff"/>
</svg>
