<svg width="139" height="25" viewBox="0 0 139 25" fill="none" xmlns="http://www.w3.org/2000/svg">
<line x1="1" y1="12.9394" x2="110" y2="12.9394" stroke="white" stroke-width="2" stroke-linecap="round" stroke-dasharray="1 7"/>
<g clip-path="url(#clip0_582_1361)">
<path fill-rule="evenodd" clip-rule="evenodd" d="M127.984 5.76338L127.994 5.77372L131.627 9.40682H132.576C136.116 9.40682 137.942 11.2182 138.654 12.1703C138.878 12.4668 139 12.8287 139 13.2008C139 13.573 138.878 13.9349 138.654 14.2314C137.942 15.1834 136.116 16.9948 132.576 16.9948H131.627L127.994 20.6279L127.984 20.6383C127.659 20.9534 127.224 21.1284 126.772 21.1258L122.835 21.1319H122.833C122.521 21.1317 122.215 21.0468 121.947 20.8863C121.68 20.7258 121.461 20.4956 121.314 20.2204C121.167 19.9452 121.097 19.6353 121.113 19.3236C121.128 19.0124 121.228 18.7111 121.401 18.4518L123.268 15.6481L123.268 10.7536L121.401 7.95063L121.401 7.94972C121.228 7.69052 121.128 7.38927 121.113 7.07801C121.097 6.7664 121.167 6.45645 121.314 6.18125C121.461 5.90604 121.68 5.6759 121.947 5.51538C122.215 5.35486 122.521 5.26999 122.833 5.26981H122.835L126.772 5.27589C127.224 5.27325 127.659 5.44826 127.984 5.76338ZM126.64 7.34365L128.703 9.40682L124.856 9.40682L123.478 7.33877L126.64 7.34365ZM132.576 11.4748C135.005 11.4748 136.277 12.5541 136.831 13.2008C136.277 13.8475 135.005 14.9269 132.576 14.9269H125.336L125.336 11.4748H132.576ZM124.856 16.9948L123.478 19.0629L126.64 19.058L128.703 16.9948H124.856Z" fill="white"/>
<path fill-rule="evenodd" clip-rule="evenodd" d="M117.959 12.9871C118.058 13.0492 118.163 13.1112 118.272 13.1717C119.128 13.6469 120.125 13.9464 121.085 13.6901C121.685 13.5298 122.302 13.8865 122.462 14.4868C122.622 15.0871 122.266 15.7037 121.665 15.8639C119.894 16.3368 118.266 15.7414 117.18 15.1394C116.625 14.8313 116.171 14.4995 115.855 14.2452C115.697 14.1174 115.571 14.0071 115.482 13.9265C115.437 13.8861 115.402 13.8529 115.377 13.8285L115.346 13.7986L115.336 13.7888L115.332 13.7852L115.331 13.7838C115.331 13.7838 115 13.4671 115 12.9871C114.999 12.4944 115.33 12.1917 115.33 12.1917L115.331 12.1905L115.332 12.1891L115.336 12.1855L115.346 12.1757L115.377 12.1458C115.402 12.1214 115.437 12.0882 115.482 12.0478C115.571 11.9672 115.697 11.8569 115.855 11.7291C116.171 11.4748 116.625 11.143 117.18 10.8349C118.266 10.2329 119.894 9.63747 121.665 10.1104C122.266 10.2706 122.622 10.8872 122.462 11.4875C122.302 12.0878 121.685 12.4445 121.085 12.2842C120.125 12.0279 119.128 12.3274 118.272 12.8026C118.163 12.8631 118.058 12.9251 117.959 12.9871Z" fill="white"/>
</g>
<defs>
<clipPath id="clip0_582_1361">
<rect width="24" height="24" fill="white" transform="translate(115 0.939392)"/>
</clipPath>
</defs>
</svg>
