<svg width="455" height="455" viewBox="0 0 455 455" fill="none"
  xmlns="http://www.w3.org/2000/svg">
  <path d="M 196.878 452.957 C 141.363 445.452 92.031 417.878 56.752 377.842 C 21.475 337.808 0 285.065 0 227.5 C 0 164.75 25.519 107.748 66.633 66.633 C 107.748 25.519 164.75 0 227.5 0 C 290.25 0 347.252 25.519 388.367 66.633 C 429.481 107.748 455 164.75 455 227.5 C 455 284.706 433.792 337.152 398.906 377.092 C 381.461 397.065 360.507 414.014 337.107 426.903 C 325.407 433.348 313.037 438.81 300.194 443.138 C 293.773 445.302 287.201 447.193 280.537 448.785 C 277.205 449.58 273.834 450.305 270.447 450.952 C 268.753 451.276 267.048 451.581 265.341 451.867 C 264.488 452.01 263.63 452.148 262.774 452.282 C 261.917 452.415 260.208 452.666 260.208 452.666 C 260.205 452.667 259.903 450.689 259.9 450.69 C 259.9 450.69 261.615 450.438 262.466 450.306 C 263.317 450.173 264.163 450.036 265.011 449.894 C 266.706 449.611 268.389 449.309 270.072 448.988 C 273.436 448.345 276.763 447.63 280.073 446.839 C 286.692 445.259 293.176 443.393 299.555 441.243 C 312.312 436.944 324.519 431.554 336.142 425.152 C 359.388 412.347 380.067 395.62 397.4 375.776 C 432.07 336.083 453 284.332 453 227.5 C 453 165.158 427.815 108.91 386.952 68.048 C 346.09 27.185 289.842 2 227.5 2 C 165.158 2 108.91 27.185 68.048 68.048 C 27.185 108.91 2 165.158 2 227.5 C 2 284.688 23.193 336.733 58.253 376.52 C 93.312 416.307 141.985 443.589 197.144 450.975 Z" fill="white"></path>
  <path d="M 260.196 452.668 C 254.863 453.435 249.453 454.02 244.007 454.41 C 241.284 454.605 238.539 454.753 235.791 454.852 C 234.417 454.901 233.035 454.938 231.654 454.963 C 230.964 454.975 230.271 454.985 229.579 454.991 C 228.888 454.997 227.509 455 227.509 455 C 227.508 455 227.504 454.5 227.5 454 L 227.5 455 C 222.314 455 217.151 454.826 212.051 454.484 C 209.501 454.313 206.954 454.099 204.428 453.845 C 203.165 453.717 201.9 453.579 200.643 453.432 C 199.386 453.284 196.894 452.959 196.894 452.959 C 196.89 452.959 197.138 450.974 197.136 450.974 C 197.136 450.974 198.385 451.139 199.008 451.218 C 199.631 451.296 200.252 451.372 200.877 451.445 C 202.126 451.592 203.373 451.728 204.628 451.855 C 207.138 452.107 209.651 452.318 212.185 452.488 C 217.252 452.828 222.347 453 227.5 453 L 227.5 453 C 227.62 453 228.907 452.997 229.561 452.991 C 230.249 452.985 230.933 452.975 231.619 452.963 C 232.99 452.939 234.354 452.902 235.719 452.853 C 238.45 452.755 241.159 452.609 243.864 452.415 C 249.274 452.027 254.614 451.451 259.912 450.688 Z" fill="transparent"></path>
</svg>
