<svg width="250" height="51" viewBox="0 0 250 51" fill="none" xmlns="http://www.w3.org/2000/svg">
<path d="M66.3265 31.2131C66.3265 27.269 67.0262 23.8235 68.4255 20.8767C69.87 17.93 71.811 15.6632 74.2485 14.0765C76.7312 12.4898 79.4847 11.6964 82.509 11.6964C85.1271 11.6964 87.3841 12.2178 89.28 13.2605C91.1758 14.3032 92.6429 15.7086 93.6811 17.4766V12.1724H106.952V50.3218H93.6811V45.0176C92.6429 46.7857 91.1533 48.191 89.2123 49.2337C87.3164 50.2764 85.082 50.7978 82.509 50.7978C79.4847 50.7978 76.7312 50.0044 74.2485 48.4177C71.811 46.831 69.87 44.5642 68.4255 41.6175C67.0262 38.6254 66.3265 35.1572 66.3265 31.2131ZM93.6811 31.2131C93.6811 28.765 93.004 26.8383 91.6498 25.4329C90.3407 24.0275 88.7157 23.3248 86.7747 23.3248C84.7886 23.3248 83.141 24.0275 81.8319 25.4329C80.5229 26.7929 79.8684 28.7197 79.8684 31.2131C79.8684 33.6612 80.5229 35.6106 81.8319 37.0613C83.141 38.4667 84.7886 39.1694 86.7747 39.1694C88.7157 39.1694 90.3407 38.4667 91.6498 37.0613C93.004 35.6559 93.6811 33.7065 93.6811 31.2131Z" fill="#a36eba"/>
<path d="M127.785 0V50.3218H114.514V0H127.785Z" fill="#a36eba"/>
<path d="M157.755 38.9654V50.3218H151.999C142.294 50.3218 137.442 45.4936 137.442 35.8373V23.2568H132.77V12.1724H137.442V2.9241H150.781V12.1724H157.687V23.2568H150.781V36.0413C150.781 37.084 151.006 37.832 151.458 38.2854C151.954 38.7387 152.767 38.9654 153.895 38.9654H157.755Z" fill="#a36eba"/>
<path d="M200.134 30.8051C200.134 31.8478 200.066 32.8905 199.931 33.9332H174.81C174.946 36.0186 175.51 37.5827 176.503 38.6254C177.541 39.6227 178.85 40.1214 180.43 40.1214C182.642 40.1214 184.222 39.1241 185.17 37.1293H199.321C198.734 39.7587 197.583 42.1162 195.868 44.2016C194.198 46.2416 192.076 47.851 189.503 49.0297C186.93 50.2084 184.087 50.7978 180.972 50.7978C177.225 50.7978 173.885 50.0044 170.951 48.4177C168.062 46.831 165.783 44.5642 164.112 41.6175C162.487 38.6707 161.675 35.2026 161.675 31.2131C161.675 27.2236 162.487 23.7782 164.112 20.8767C165.737 17.93 167.994 15.6632 170.883 14.0765C173.817 12.4898 177.18 11.6964 180.972 11.6964C184.719 11.6964 188.036 12.4671 190.925 14.0085C193.814 15.5499 196.071 17.7713 197.696 20.6727C199.321 23.5288 200.134 26.9063 200.134 30.8051ZM186.592 27.473C186.592 25.8409 186.05 24.5715 184.967 23.6648C183.884 22.7128 182.529 22.2368 180.904 22.2368C179.279 22.2368 177.948 22.6901 176.909 23.5968C175.871 24.4582 175.194 25.7502 174.878 27.473H186.592Z" fill="#a36eba"/>
<path d="M218.836 18.9047C220.325 16.7286 222.131 15.0059 224.253 13.7365C226.374 12.4671 228.654 11.8324 231.091 11.8324V26.0449H227.367C224.478 26.0449 222.334 26.6116 220.935 27.745C219.535 28.8784 218.836 30.8504 218.836 33.6612V50.3218H205.565V12.1724H218.836V18.9047Z" fill="#a36eba"/>
<path d="M242.281 50.8658C239.934 50.8658 238.038 50.2311 236.594 48.9617C235.194 47.647 234.495 45.9923 234.495 43.9976C234.495 42.0028 235.194 40.3481 236.594 39.0334C238.038 37.7187 239.934 37.0613 242.281 37.0613C244.583 37.0613 246.434 37.7187 247.833 39.0334C249.278 40.3481 250 42.0028 250 43.9976C250 45.947 249.278 47.579 247.833 48.8937C246.434 50.2084 244.583 50.8658 242.281 50.8658Z" fill="#a36eba"/>
<path fill-rule="evenodd" clip-rule="evenodd" d="M6.3939 21.34H0V11.8687H6.3939C9.04751 11.8687 11.6017 12.542 13.8389 14.0805C16.0484 15.5999 17.64 17.7499 18.7577 20.2127C19.2844 21.3732 19.7259 21.6471 19.8282 21.7064C19.97 21.7886 20.243 21.8946 20.9078 21.8946H28.9116V12.4258H35.3055C37.9591 12.4258 40.5133 13.0992 42.7505 14.6376C44.9599 16.157 46.5516 18.307 47.6693 20.7698C48.196 21.9304 48.6375 22.2043 48.7398 22.2636C48.8816 22.3458 49.1545 22.4517 49.8194 22.4517H57.8231V31.9231H49.8194C48.1974 31.9231 46.0938 31.672 44.0059 30.4614C41.8786 29.2279 40.2374 27.2732 39.0654 24.6908C38.4844 23.4106 37.8811 22.7762 37.4023 22.4469C36.9512 22.1367 36.3239 21.8972 35.3055 21.8972H28.9116V31.366H20.9078C19.2858 31.366 17.1822 31.1149 15.0944 29.9043C12.967 28.6708 11.3259 26.7161 10.1538 24.1337C9.57282 22.8534 8.96953 22.2191 8.49072 21.8898C8.03968 21.5796 7.41235 21.34 6.3939 21.34Z" fill="#a36eba"/>
<path fill-rule="evenodd" clip-rule="evenodd" d="M6.3939 40.2828H0V30.8114H6.3939C9.04751 30.8114 11.6017 31.4847 13.8389 33.0232C16.0484 34.5426 17.64 36.6926 18.7577 39.1554C19.2844 40.316 19.7259 40.5898 19.8282 40.6491C19.97 40.7313 20.243 40.8373 20.9078 40.8373H28.9116V31.3685H35.3055C37.9591 31.3685 40.5133 32.0419 42.7505 33.5803C44.9599 35.0997 46.5516 37.2497 47.6693 39.7125C48.196 40.8731 48.6375 41.147 48.7398 41.2063C48.8816 41.2885 49.1545 41.3945 49.8194 41.3945H57.8231V50.8658H49.8194C48.1974 50.8658 46.0938 50.6147 44.0059 49.4041C41.8786 48.1706 40.2374 46.216 39.0654 43.6335C38.4844 42.3533 37.8811 41.7189 37.4023 41.3896C36.9512 41.0795 36.3239 40.8399 35.3055 40.8399H28.9116V50.3087H20.9078C19.2858 50.3087 17.1822 50.0576 15.0944 48.847C12.967 47.6135 11.3259 45.6588 10.1538 43.0764C9.57282 41.7962 8.96953 41.1618 8.49072 40.8325C8.03968 40.5223 7.41235 40.2828 6.3939 40.2828Z" fill="#a36eba"/>
</svg>
